<?xml version="1.0" encoding="UTF-8" standalone="no"?>
<!DOCTYPE svg PUBLIC "-//W3C//DTD SVG 1.1//EN" "http://www.w3.org/Graphics/SVG/1.1/DTD/svg11.dtd">
<svg width="100%" height="100%" viewBox="0 0 64 64" version="1.1" xmlns="http://www.w3.org/2000/svg" xmlns:xlink="http://www.w3.org/1999/xlink" xml:space="preserve" xmlns:serif="http://www.serif.com/" style="fill-rule:evenodd;clip-rule:evenodd;stroke-linejoin:round;stroke-miterlimit:2;">
    <g transform="matrix(1.09414,0,0,1.15892,-3.18152,-7.41497)">
        <path d="M23.335,51.267C24.34,53.131 26.578,54.206 28.848,53.755C30.539,53.419 31.472,52.559 32.07,51.732C32.825,50.689 33.207,49.406 32.827,47.873C32.692,47.332 32.409,46.63 31.847,45.92C31.505,45.489 30.581,44.675 30.321,44.45C29.321,43.506 28.001,42.797 27.24,41.655C25.68,39.312 24.519,36.483 22.947,34.02C21.513,31.772 19.781,29.787 17.526,28.322C15.241,26.837 12.109,27.383 10.536,29.54C8.963,31.698 9.541,34.655 11.826,36.14C13.253,37.068 14.136,38.509 14.978,39.988C16.261,42.24 17.357,44.646 18.729,46.707C19.873,48.425 21.699,49.648 23.156,51.105L23.335,51.267ZM24.89,45.249L24.875,45.261L24.923,45.228L24.89,45.249ZM26.522,44.524C25.887,44.68 25.375,44.92 24.957,45.205C25.422,44.901 25.949,44.667 26.522,44.524Z" style="fill-opacity:0;"/>
    </g>
    <path d="M49.512,8.061C49.368,8.122 49.236,8.19 49.12,8.265C48.423,8.716 47.425,9.462 46.911,11.421L44.083,16.75C43.85,17.189 43.668,17.544 43.519,17.848C43.434,17.951 43.35,18.065 43.265,18.19C42.937,18.674 42.04,20.474 41.554,21.568C41.249,22.11 40.915,22.698 40.572,23.295C40.276,23.811 36.955,30.588 36.955,30.588C36.955,30.588 37.053,30.453 37.077,30.422C36.266,31.51 35.903,32.721 35.247,33.906C34.464,35.319 33.57,36.574 32.88,38.044C31.87,40.198 30.691,42.875 28.544,44.144C28.268,44.306 27.981,44.539 27.706,44.797C27.402,44.687 27.094,44.599 26.813,44.554C24.36,44.164 22.052,45.84 21.663,48.293C21.299,50.583 22.736,52.747 24.925,53.34C25.654,53.715 27.609,54.596 29.366,54.333C31.225,54.055 32.872,52.392 33.534,51.636C36.976,49.411 39.371,45.401 41.029,41.864C41.631,40.581 42.436,39.5 43.119,38.268C43.575,37.444 43.731,36.554 44.294,35.798C44.777,35.15 48.031,28.38 48.377,27.776L48.784,27.062C48.955,26.871 49.119,26.653 49.275,26.409C49.514,26.035 50.617,23.99 51.14,22.743C51.352,22.291 51.609,21.767 52.034,20.965C52.329,20.41 53.721,17.794 54.682,15.826C55.566,15.312 56.464,14.383 56.837,12.985C56.885,12.804 56.916,12.614 56.933,12.42C56.963,12.237 56.983,12.039 56.992,11.823C56.997,11.742 56.999,11.659 56.999,11.577L56.992,11.823L56.976,12.036C56.966,12.112 56.957,12.187 56.947,12.262L56.942,12.29L56.933,12.42C56.795,13.3 56.456,13.817 56.235,14.085C56.591,13.555 56.838,12.946 56.942,12.29C57.024,11.02 56.58,9.61 56.511,9.475C55.776,8.035 54.699,7.521 53.985,7.272C53.791,7.205 51.22,6.784 49.512,8.061ZM54.026,15.81C53.555,15.981 53.047,16.075 52.517,16.076C52.954,16.098 53.395,16.054 53.833,15.92C53.897,15.889 53.956,15.855 54.011,15.82L54.026,15.81ZM55.014,15.308L54.896,15.383L54.884,15.41C54.978,15.345 55.072,15.275 55.165,15.2L55.014,15.308ZM55.174,14.798C55.36,14.516 55.52,14.155 55.621,13.682C55.58,13.874 55.414,14.276 55.174,14.798Z" style="fill:rgb(11,255,0);"/>
    <path d="M10.511,37.301C10.719,37.682 10.945,38.088 11.022,38.206C11.609,39.098 12.579,40.679 13.068,41.653C14.645,44.793 16.012,46.795 18.141,49.627C19.169,50.995 20.164,52.627 21.689,53.577C24.5,55.327 28.203,54.467 29.954,51.656C31.56,49.078 30.969,45.748 28.689,43.865C28.466,43.504 28.012,42.788 27.733,42.417C26.088,40.228 25.011,38.695 23.793,36.269C23.164,35.016 21.958,33.012 21.16,31.787C20.999,31.493 20.241,30.115 20.023,29.815C19.545,29.159 19.074,28.758 18.766,28.523C17.33,27.427 15.958,27.264 14.976,27.286C13.177,27.326 11.641,28.024 10.433,29.52C10.081,29.955 8.469,31.578 9.3,34.913C9.526,35.82 9.949,36.628 10.511,37.301ZM21.012,32.318C21.144,32.995 21.156,33.671 21.06,34.321C21.153,33.809 21.18,33.145 21.012,32.318Z" style="fill:rgb(11,255,0);"/>
</svg>
